<?xml version="1.0" standalone="no"?>
<!DOCTYPE svg PUBLIC "-//W3C//DTD SVG 20010904//EN"
 "http://www.w3.org/TR/2001/REC-SVG-20010904/DTD/svg10.dtd">
<svg version="1.0" xmlns="http://www.w3.org/2000/svg"
 width="402.000000pt" height="402.000000pt" viewBox="0 0 402.000000 402.000000"
 preserveAspectRatio="xMidYMid meet">
<metadata>
Created by potrace 1.11, written by Peter Selinger 2001-2013
</metadata>
<g transform="translate(0.000000,402.000000) scale(0.100000,-0.100000)"
fill="#000000" stroke="none">
<path d="M1800 4010 c-78 -9 -118 -16 -185 -30 -27 -6 -63 -13 -80 -16 -106
-19 -356 -118 -516 -206 -324 -176 -628 -496 -802 -843 -154 -306 -218 -593
-212 -940 4 -250 34 -419 115 -645 252 -711 902 -1227 1655 -1315 123 -14 380
-14 490 0 246 32 531 129 750 254 43 25 170 108 195 128 231 182 382 350 515
569 127 209 200 397 261 669 3 11 7 43 9 70 2 28 7 59 11 70 10 25 12 378 2
460 -18 155 -100 479 -129 510 -5 5 -9 15 -9 23 0 33 -150 309 -219 402 -342
466 -801 745 -1363 831 -88 14 -398 19 -488 9z"/>
</g>
</svg>
